<svg width="16" height="16" viewBox="0 0 16 16" fill="none" xmlns="http://www.w3.org/2000/svg">
<path d="M0.769231 15.0397C0.344397 15.0397 0 14.6953 0 14.2704C0 13.8456 0.344396 13.5012 0.769231 13.5012H10.2308C10.6556 13.5012 11 13.8456 11 14.2704C11 14.6953 10.6556 15.0397 10.2308 15.0397H0.769231ZM0.76923 11.1935C0.344396 11.1935 0 10.8491 0 10.4243C0 9.99945 0.344396 9.65505 0.76923 9.65505H5.23077C5.6556 9.65505 6 9.99945 6 10.4243C6 10.8491 5.6556 11.1935 5.23077 11.1935H0.76923ZM0.76923 7.34735C0.344396 7.34735 0 7.00296 0 6.57812C0 6.15329 0.344396 5.80889 0.76923 5.80889H3.23077C3.6556 5.80889 4 6.15329 4 6.57812C4 7.00296 3.6556 7.34735 3.23077 7.34735H0.76923ZM15.418 11.5223C15.1175 11.8113 14.6425 11.8113 14.342 11.5223L11.8 9.07813C11.48 9.29608 11.13 9.45954 10.75 9.56851C10.37 9.67749 9.98667 9.73197 9.6 9.73197C8.49333 9.73197 7.55 9.35697 6.77 8.60697C5.99 7.85697 5.6 6.94992 5.6 5.88582C5.6 4.82172 5.99 3.91466 6.77 3.16466C7.55 2.41466 8.49333 2.03966 9.6 2.03966C10.7067 2.03966 11.65 2.41466 12.43 3.16466C13.21 3.91466 13.6 4.82172 13.6 5.88582C13.6 6.25761 13.5433 6.6262 13.43 6.99159C13.3167 7.35697 13.1467 7.69351 12.92 8.0012L15.418 10.4032C15.7357 10.7086 15.7357 11.2169 15.418 11.5223ZM9.6 8.19351C10.2667 8.19351 10.8333 7.96915 11.3 7.52043C11.7667 7.07172 12 6.52684 12 5.88582C12 5.24479 11.7667 4.69992 11.3 4.2512C10.8333 3.80248 10.2667 3.57812 9.6 3.57812C8.93333 3.57812 8.36667 3.80248 7.9 4.2512C7.43333 4.69992 7.2 5.24479 7.2 5.88582C7.2 6.52684 7.43333 7.07172 7.9 7.52043C8.36667 7.96915 8.93333 8.19351 9.6 8.19351Z" fill="#1F1F1F"/>
<path d="M0.76923 2C0.344396 2 0 2.3444 0 2.76923C0 3.19406 0.344396 3.53846 0.76923 3.53846H3.23077C3.6556 3.53846 4 3.19406 4 2.76923C4 2.3444 3.6556 2 3.23077 2H0.76923Z" fill="#1F1F1F"/>
</svg>
