<svg width="46" height="46" viewBox="0 0 46 46" fill="none" xmlns="http://www.w3.org/2000/svg">
<path d="M9.18182 36.7143V20.1964L7.49119 21.5138C6.71429 22.1191 5.59094 21.9638 5.0075 21.1703C4.44661 20.4074 4.59478 19.3367 5.34176 18.7548L23 5L40.6555 18.7527C41.4024 19.3345 41.5467 20.4069 40.9801 21.1655C40.4006 21.9413 39.2991 22.0944 38.53 21.506L36.8182 20.1964L23 9.44881L12.6364 17.5095V33.1905H19.5045C20.4811 33.1905 21.2602 33.9862 21.4023 34.9524C21.5335 35.8448 20.8872 36.7143 19.9852 36.7143H9.18182ZM31.6364 42H26.0487C25.3189 42 24.7273 41.4084 24.7273 40.6786C24.7273 39.9488 25.3189 39.3571 26.0487 39.3571H27.1886C26.4402 38.5643 25.8428 37.6393 25.3966 36.5821C24.9504 35.525 24.7273 34.3944 24.7273 33.1905C24.7273 31.0762 25.3822 29.2115 26.692 27.5964C27.6268 26.4438 28.7338 25.5978 30.0131 25.0584C30.8222 24.7173 31.6364 25.3806 31.6364 26.2587C31.6364 26.8698 31.2273 27.3934 30.6791 27.6637C29.8373 28.0787 29.12 28.6803 28.5273 29.4685C27.7212 30.5403 27.3182 31.781 27.3182 33.1905C27.3182 34.0421 27.4693 34.8349 27.7716 35.569C28.0739 36.3032 28.4985 36.9492 29.0455 37.5071V36.2478C29.0455 35.5324 29.6254 34.9524 30.3409 34.9524C31.0564 34.9524 31.6364 35.5324 31.6364 36.2478V42ZM36.7232 41.3187C35.9098 41.6628 35.0909 40.9956 35.0909 40.1125C35.0909 39.5054 35.4922 38.9828 36.0359 38.7124C36.9039 38.2807 37.6325 37.666 38.2216 36.8685C39.0133 35.7966 39.4091 34.5706 39.4091 33.1905C39.4091 32.3389 39.258 31.546 38.9557 30.8119C38.6534 30.0778 38.2288 29.4317 37.6818 28.8738V30.1331C37.6818 30.8486 37.1018 31.4286 36.3864 31.4286C35.6709 31.4286 35.0909 30.8486 35.0909 30.1331V24.381H40.6786C41.4084 24.381 42 24.9726 42 25.7024C42 26.4322 41.4084 27.0238 40.6786 27.0238H39.5386C40.2871 27.8167 40.8845 28.7417 41.3307 29.7988C41.7769 30.856 42 31.9865 42 33.1905C42 35.3048 41.3451 37.1694 40.0352 38.7845C39.1027 39.9344 37.9986 40.7791 36.7232 41.3187Z" fill="#3D8BFF"/>
</svg>
