<svg width="46" height="46" viewBox="0 0 46 46" fill="none" xmlns="http://www.w3.org/2000/svg">
<path d="M22.6 35.4444H7V30.4667C7 29.4593 7.25926 28.5333 7.77778 27.6889C8.2963 26.8444 8.98519 26.2 9.84444 25.7556C11.6815 24.837 13.5481 24.1481 15.4444 23.6889C17.3407 23.2296 19.2667 23 21.2222 23V26.5556C19.563 26.5556 17.9185 26.7556 16.2889 27.1556C14.6593 27.5556 13.0444 28.1556 11.4444 28.9556C11.1778 29.1037 10.963 29.3111 10.8 29.5778C10.637 29.8444 10.5556 30.1407 10.5556 30.4667V31.8889H21.4444C21.563 32.5111 21.7185 33.1185 21.9111 33.7111C22.1037 34.3037 22.3333 34.8815 22.6 35.4444ZM31.8889 39C29.7259 38.4667 28 37.2815 26.7111 35.4444C25.4222 33.6074 24.7778 31.563 24.7778 29.3111V24.7778L31.8889 21.2222L39 24.7778V29.3111C39 31.563 38.3556 33.6074 37.0667 35.4444C35.7778 37.2815 34.0519 38.4667 31.8889 39ZM31.8889 35.2667C33.0148 34.7333 33.8889 33.9185 34.5111 32.8222C35.1333 31.7259 35.4444 30.5556 35.4444 29.3111V27L31.8889 25.2222L28.3333 27V29.3111C28.3333 30.5556 28.6444 31.7259 29.2667 32.8222C29.8889 33.9185 30.763 34.7333 31.8889 35.2667ZM21.2222 21.2222C19.2667 21.2222 17.5926 20.5259 16.2 19.1333C14.8074 17.7407 14.1111 16.0667 14.1111 14.1111C14.1111 12.1556 14.8074 10.4815 16.2 9.08889C17.5926 7.6963 19.2667 7 21.2222 7C23.1778 7 24.8519 7.6963 26.2444 9.08889C27.637 10.4815 28.3333 12.1556 28.3333 14.1111C28.3333 16.0667 27.637 17.7407 26.2444 19.1333C24.8519 20.5259 23.1778 21.2222 21.2222 21.2222ZM21.2222 17.6667C22.2 17.6667 23.037 17.3185 23.7333 16.6222C24.4296 15.9259 24.7778 15.0889 24.7778 14.1111C24.7778 13.1333 24.4296 12.2963 23.7333 11.6C23.037 10.9037 22.2 10.5556 21.2222 10.5556C20.2444 10.5556 19.4074 10.9037 18.7111 11.6C18.0148 12.2963 17.6667 13.1333 17.6667 14.1111C17.6667 15.0889 18.0148 15.9259 18.7111 16.6222C19.4074 17.3185 20.2444 17.6667 21.2222 17.6667Z" fill="#3D8BFF"/>
</svg>
