<svg width="46" height="46" viewBox="0 0 46 46" fill="none" xmlns="http://www.w3.org/2000/svg">
<path d="M10.2 10.1429V19.6107V19.5714V35.2857V10.1429ZM10.2 38.4286C9.32 38.4286 8.56667 38.1208 7.94 37.5054C7.31333 36.8899 7 36.15 7 35.2857V10.1429C7 9.27857 7.31333 8.53869 7.94 7.92321C8.56667 7.30774 9.32 7 10.2 7H23L32.6 16.4286V20.3571C32.0933 20.1476 31.5733 19.9839 31.04 19.8661C30.5067 19.7482 29.96 19.6631 29.4 19.6107V18H21.4V10.1429H10.2V35.2857H19.84C20.2667 35.9143 20.7467 36.497 21.28 37.0339C21.8133 37.5708 22.4 38.0357 23.04 38.4286H10.2ZM28.6 33.7143C29.72 33.7143 30.6667 33.3345 31.44 32.575C32.2133 31.8155 32.6 30.8857 32.6 29.7857C32.6 28.6857 32.2133 27.756 31.44 26.9964C30.6667 26.2369 29.72 25.8571 28.6 25.8571C27.48 25.8571 26.5333 26.2369 25.76 26.9964C24.9867 27.756 24.6 28.6857 24.6 29.7857C24.6 30.8857 24.9867 31.8155 25.76 32.575C26.5333 33.3345 27.48 33.7143 28.6 33.7143ZM36.76 40L32.44 35.7571C31.88 36.1238 31.2733 36.3988 30.62 36.5821C29.9667 36.7655 29.2933 36.8571 28.6 36.8571C26.6 36.8571 24.9 36.1696 23.5 34.7946C22.1 33.4196 21.4 31.75 21.4 29.7857C21.4 27.8214 22.1 26.1518 23.5 24.7768C24.9 23.4018 26.6 22.7143 28.6 22.7143C30.6 22.7143 32.3 23.4018 33.7 24.7768C35.1 26.1518 35.8 27.8214 35.8 29.7857C35.8 30.4667 35.7067 31.128 35.52 31.7696C35.3333 32.4113 35.0533 33.0071 34.68 33.5571L39 37.8L36.76 40Z" fill="#3D8BFF"/>
</svg>
