<svg width="70" height="44" viewBox="0 0 70 44" fill="none" xmlns="http://www.w3.org/2000/svg">
<path d="M42.457 15.5664H46.1696V16.3963C47.4639 15.5664 48.0746 15.5664 49.5902 15.5664C50.5358 15.5664 51.3701 15.7951 52.0931 16.2525C52.8162 16.6957 53.3724 17.3389 53.7617 18.1823C54.165 19.0256 54.3666 20.0191 54.3666 21.1626V28.4313H50.654V22.3419C50.654 21.3842 50.4663 20.6552 50.0908 20.1549C49.7293 19.6403 49.2009 19.383 48.5057 19.383C47.7826 19.383 47.2125 19.6617 46.7954 20.2192C46.3782 20.7767 46.1696 21.5414 46.1696 22.5135V28.4313H42.457V15.5664Z" fill="#17171B"/>
<path d="M9.09301 8V27.9814H5.84766V8H9.09301Z" fill="#17171B"/>
<path d="M3.36445 14.0292V27.9849H0.119096V14.0292H3.36445ZM3.48354 8.23828V11.1338H0V8.23828H3.48354Z" fill="#17171B"/>
<mask id="path-4-inside-1_3310_5911" fill="white">
<ellipse cx="18.1327" cy="21.6233" rx="6.69912" ry="6.81084"/>
</mask>
<path d="M24.8318 21.6233H15.2588C15.2588 20.2477 16.3969 18.8612 18.1327 18.8612V28.4342V38.0072C27.2682 38.0072 34.4048 30.522 34.4048 21.6233H24.8318ZM18.1327 28.4342V18.8612C19.8686 18.8612 21.0066 20.2477 21.0066 21.6233H11.4336H1.8606C1.8606 30.522 8.99722 38.0072 18.1327 38.0072V28.4342ZM11.4336 21.6233H21.0066C21.0066 22.9989 19.8686 24.3855 18.1327 24.3855V14.8125V5.2395C8.99722 5.2395 1.8606 12.7247 1.8606 21.6233H11.4336ZM18.1327 14.8125V24.3855C16.3969 24.3855 15.2588 22.9989 15.2588 21.6233H24.8318H34.4048C34.4048 12.7247 27.2682 5.2395 18.1327 5.2395V14.8125Z" fill="#17171B" mask="url(#path-4-inside-1_3310_5911)"/>
<mask id="path-6-inside-2_3310_5911" fill="white">
<path d="M24.8318 29.1892C24.8318 30.0836 24.6586 30.9692 24.3219 31.7956C23.9852 32.6219 23.4918 33.3727 22.8697 34.0052C22.2476 34.6376 21.5091 35.1393 20.6964 35.4816C19.8836 35.8238 19.0125 36 18.1327 36C17.253 36 16.3818 35.8238 15.5691 35.4816C14.7563 35.1393 14.0178 34.6376 13.3957 34.0052C12.7736 33.3727 12.2802 32.6219 11.9435 31.7956C11.6069 30.9692 11.4336 30.0836 11.4336 29.1892H15.0199C15.0199 29.6048 15.1004 30.0163 15.2568 30.4003C15.4133 30.7842 15.6426 31.1331 15.9316 31.427C16.2207 31.7208 16.5638 31.954 16.9415 32.113C17.3191 32.272 17.7239 32.3539 18.1327 32.3539C18.5415 32.3539 18.9463 32.272 19.3239 32.113C19.7016 31.954 20.0448 31.7208 20.3338 31.427C20.6229 31.1331 20.8522 30.7842 21.0086 30.4003C21.165 30.0163 21.2455 29.6048 21.2455 29.1892H24.8318Z"/>
</mask>
<path d="M24.8318 29.1892C24.8318 30.0836 24.6586 30.9692 24.3219 31.7956C23.9852 32.6219 23.4918 33.3727 22.8697 34.0052C22.2476 34.6376 21.5091 35.1393 20.6964 35.4816C19.8836 35.8238 19.0125 36 18.1327 36C17.253 36 16.3818 35.8238 15.5691 35.4816C14.7563 35.1393 14.0178 34.6376 13.3957 34.0052C12.7736 33.3727 12.2802 32.6219 11.9435 31.7956C11.6069 30.9692 11.4336 30.0836 11.4336 29.1892H15.0199C15.0199 29.6048 15.1004 30.0163 15.2568 30.4003C15.4133 30.7842 15.6426 31.1331 15.9316 31.427C16.2207 31.7208 16.5638 31.954 16.9415 32.113C17.3191 32.272 17.7239 32.3539 18.1327 32.3539C18.5415 32.3539 18.9463 32.272 19.3239 32.113C19.7016 31.954 20.0448 31.7208 20.3338 31.427C20.6229 31.1331 20.8522 30.7842 21.0086 30.4003C21.165 30.0163 21.2455 29.6048 21.2455 29.1892H24.8318Z" stroke="#17171B" stroke-width="19.146" mask="url(#path-6-inside-2_3310_5911)"/>
<mask id="path-7-inside-3_3310_5911" fill="white">
<path d="M69.9998 29.1892C69.9998 30.0836 69.8265 30.9692 69.4899 31.7956C69.1532 32.6219 68.6597 33.3727 68.0377 34.0052C67.4156 34.6376 66.6771 35.1393 65.8643 35.4816C65.0515 35.8238 64.1804 36 63.3007 36C62.4209 36 61.5498 35.8238 60.737 35.4816C59.9243 35.1393 59.1858 34.6376 58.5637 34.0052C57.9416 33.3727 57.4482 32.6219 57.1115 31.7956C56.7748 30.9692 56.6016 30.0836 56.6016 29.1892H60.1878C60.1878 29.6048 60.2684 30.0163 60.4248 30.4003C60.5812 30.7842 60.8105 31.1331 61.0996 31.427C61.3886 31.7208 61.7318 31.954 62.1095 32.113C62.4871 32.272 62.8919 32.3539 63.3007 32.3539C63.7095 32.3539 64.1142 32.272 64.4919 32.113C64.8696 31.954 65.2127 31.7208 65.5018 31.427C65.7908 31.1331 66.0201 30.7842 66.1766 30.4003C66.333 30.0163 66.4135 29.6048 66.4135 29.1892H69.9998Z"/>
</mask>
<path d="M69.9998 29.1892C69.9998 30.0836 69.8265 30.9692 69.4899 31.7956C69.1532 32.6219 68.6597 33.3727 68.0377 34.0052C67.4156 34.6376 66.6771 35.1393 65.8643 35.4816C65.0515 35.8238 64.1804 36 63.3007 36C62.4209 36 61.5498 35.8238 60.737 35.4816C59.9243 35.1393 59.1858 34.6376 58.5637 34.0052C57.9416 33.3727 57.4482 32.6219 57.1115 31.7956C56.7748 30.9692 56.6016 30.0836 56.6016 29.1892H60.1878C60.1878 29.6048 60.2684 30.0163 60.4248 30.4003C60.5812 30.7842 60.8105 31.1331 61.0996 31.427C61.3886 31.7208 61.7318 31.954 62.1095 32.113C62.4871 32.272 62.8919 32.3539 63.3007 32.3539C63.7095 32.3539 64.1142 32.272 64.4919 32.113C64.8696 31.954 65.2127 31.7208 65.5018 31.427C65.7908 31.1331 66.0201 30.7842 66.1766 30.4003C66.333 30.0163 66.4135 29.6048 66.4135 29.1892H69.9998Z" stroke="#17171B" stroke-width="19.146" mask="url(#path-7-inside-3_3310_5911)"/>
<mask id="path-8-inside-4_3310_5911" fill="white">
<ellipse cx="63.3007" cy="21.6233" rx="6.69912" ry="6.81084"/>
</mask>
<path d="M69.9998 21.6233H60.4268C60.4268 20.2477 61.5648 18.8612 63.3007 18.8612V28.4342V38.0072C72.4362 38.0072 79.5728 30.522 79.5728 21.6233H69.9998ZM63.3007 28.4342V18.8612C65.0365 18.8612 66.1746 20.2477 66.1746 21.6233H56.6016H47.0286C47.0286 30.522 54.1652 38.0072 63.3007 38.0072V28.4342ZM56.6016 21.6233H66.1746C66.1746 22.9989 65.0365 24.3855 63.3007 24.3855V14.8125V5.2395C54.1652 5.2395 47.0286 12.7247 47.0286 21.6233H56.6016ZM63.3007 14.8125V24.3855C61.5648 24.3855 60.4268 22.9989 60.4268 21.6233H69.9998H79.5728C79.5728 12.7247 72.4362 5.2395 63.3007 5.2395V14.8125Z" fill="#17171B" mask="url(#path-8-inside-4_3310_5911)"/>
<mask id="path-10-inside-5_3310_5911" fill="white">
<ellipse cx="33.5272" cy="21.6233" rx="6.69912" ry="6.81084"/>
</mask>
<path d="M40.2264 21.6233H30.6534C30.6534 20.2477 31.7914 18.8612 33.5272 18.8612V28.4342V38.0072C42.6627 38.0072 49.7994 30.522 49.7994 21.6233H40.2264ZM33.5272 28.4342V18.8612C35.2631 18.8612 36.4011 20.2477 36.4011 21.6233H26.8281H17.2551C17.2551 30.522 24.3918 38.0072 33.5272 38.0072V28.4342ZM26.8281 21.6233H36.4011C36.4011 22.9989 35.2631 24.3855 33.5272 24.3855V14.8125V5.2395C24.3918 5.2395 17.2551 12.7247 17.2551 21.6233H26.8281ZM33.5272 14.8125V24.3855C31.7914 24.3855 30.6534 22.9989 30.6534 21.6233H40.2264H49.7994C49.7994 12.7247 42.6627 5.2395 33.5272 5.2395V14.8125Z" fill="#17171B" mask="url(#path-10-inside-5_3310_5911)"/>
</svg>
